<?xml version="1.0" standalone="no"?>
<!DOCTYPE svg PUBLIC "-//W3C//DTD SVG 20010904//EN"
 "http://www.w3.org/TR/2001/REC-SVG-20010904/DTD/svg10.dtd">
<svg version="1.0" xmlns="http://www.w3.org/2000/svg"
 width="350.000000pt" height="350.000000pt" viewBox="0 0 350.000000 350.000000"
 preserveAspectRatio="xMidYMid meet">
<metadata>
Created by potrace 1.14, written by Peter Selinger 2001-2017
</metadata>
<g transform="translate(0.000000,350.000000) scale(0.100000,-0.100000)"
fill="#000000" stroke="none">
<path d="M0 1750 l0 -1750 1750 0 1750 0 0 1750 0 1750 -1750 0 -1750 0 0
-1750z m440 515 l0 -85 70 0 70 0 0 86 0 85 43 -3 42 -3 0 -210 0 -210 -42 -3
-43 -3 0 85 0 86 -70 0 -70 0 0 -85 0 -85 -45 0 -45 0 0 215 0 215 45 0 45 0
0 -85z m510 64 c62 -35 80 -79 80 -196 0 -87 -3 -104 -23 -134 -39 -58 -84
-81 -145 -77 -102 9 -152 78 -152 210 0 112 29 175 95 204 45 20 102 17 145
-7z m239 -96 l60 -118 0 118 1 117 56 0 55 0 59 -122 60 -123 0 123 0 122 45
0 45 0 0 -216 0 -215 -52 3 -52 3 -63 120 -63 120 0 -122 0 -123 -50 0 -50 0
-105 210 c-58 115 -105 212 -105 215 0 3 22 5 50 5 l50 0 59 -117z m701 32 l0
-85 70 0 69 0 3 83 3 82 43 3 42 3 0 -216 0 -216 -42 3 -43 3 -3 83 -3 82 -69
0 -70 0 0 -86 0 -85 -42 3 -43 3 -3 200 c-1 110 0 205 2 212 3 8 22 13 46 13
l40 0 0 -85z m600 -130 l0 -215 -45 0 c-43 0 -45 1 -45 30 0 30 -1 30 -52 30
-48 0 -55 -3 -70 -30 -15 -27 -22 -30 -68 -30 -27 0 -50 2 -50 3 0 5 199 377
216 405 12 18 23 22 64 22 l50 0 0 -215z m280 200 c38 -20 68 -60 76 -101 9
-46 -20 -120 -54 -141 -15 -9 -28 -18 -30 -19 -2 -1 13 -34 32 -73 20 -39 36
-73 36 -76 0 -3 -22 -5 -50 -5 l-50 0 -35 70 c-47 93 -65 93 -65 -1 l0 -70
-42 3 -43 3 -3 200 c-1 110 0 205 2 212 8 19 188 18 226 -2z m350 -7 c67 -46
75 -67 75 -193 0 -99 -3 -117 -21 -141 -45 -60 -67 -69 -177 -69 l-102 0 -3
200 c-1 110 0 205 2 212 4 9 32 13 99 13 81 0 99 -3 127 -22z m-2477 -531 c20
-11 37 -23 37 -27 0 -3 -16 -21 -34 -39 -33 -32 -37 -33 -65 -21 -37 15 -74 7
-101 -22 -17 -19 -20 -35 -20 -129 l0 -107 31 -26 c70 -59 102 -31 223 195 54
101 103 190 109 197 7 8 29 12 66 10 l56 -3 3 -262 2 -263 -55 0 -55 0 0 35 0
35 -66 0 c-58 0 -69 -3 -104 -31 -70 -56 -184 -53 -250 7 -59 54 -73 101 -69
236 5 129 21 169 86 209 68 43 135 44 206 6z m499 19 c7 -7 45 -77 83 -155
l70 -142 5 153 5 153 50 0 50 0 3 -262 2 -263 -65 0 -65 0 -77 153 -78 152 -3
-152 -3 -153 -49 0 -50 0 0 258 c0 142 3 262 7 265 12 13 101 7 115 -7z m658
-251 l0 -265 -50 0 -50 0 0 258 c0 142 3 262 7 265 3 4 26 7 50 7 l43 0 0
-265z m370 210 l0 -55 -50 0 -50 0 0 -210 0 -210 -55 0 -55 0 0 210 0 210 -50
0 -50 0 0 55 0 55 155 0 155 0 0 -55z m530 29 c70 -40 99 -124 70 -199 -9 -23
-6 -32 14 -55 62 -75 33 -191 -61 -239 -13 -6 -74 -11 -147 -11 l-126 0 0 258
c0 142 3 262 8 266 4 5 52 6 107 4 78 -3 108 -8 135 -24z m495 -29 l0 -50
-102 -3 -103 -3 0 -54 0 -55 71 0 70 0 -3 -47 -3 -48 -67 -3 -68 -3 0 -54 0
-55 105 0 105 0 0 -50 0 -50 -160 0 -160 0 0 258 c0 142 3 262 7 266 4 3 75 5
157 4 l151 -3 0 -50z m-1935 -627 c0 18 5 32 10 32 6 0 10 -23 10 -51 0 -56 1
-56 -57 -5 l-23 19 0 -31 c0 -18 -4 -32 -10 -32 -5 0 -10 26 -10 57 l0 57 40
-39 40 -39 0 32z m964 -67 c-3 -3 -10 2 -15 12 -6 9 -16 17 -24 17 -8 0 -18
-8 -24 -17 -20 -36 -18 -6 2 44 l22 53 23 -52 c12 -28 20 -54 16 -57z m-1854
55 c0 -41 2 -45 28 -49 22 -3 20 -4 -10 -6 l-38 -1 0 50 c0 28 5 50 10 50 6 0
10 -20 10 -44z m138 37 c-35 -5 -37 -33 -3 -33 14 0 25 -4 25 -10 0 -5 -11
-10 -25 -10 -38 0 -32 -28 8 -33 28 -3 26 -4 -10 -5 l-43 -2 0 50 0 50 38 -1
c30 -2 32 -3 10 -6z m136 -39 c10 -25 16 -48 12 -51 -3 -3 -8 2 -12 11 -8 21
-40 21 -48 0 -4 -9 -9 -14 -12 -11 -7 6 27 97 36 97 3 0 13 -21 24 -46z m131
6 c0 -19 4 -41 8 -47 5 -8 3 -13 -6 -13 -8 0 -17 7 -21 15 -3 8 -10 15 -16 15
-5 0 -10 -7 -10 -15 0 -8 -4 -15 -10 -15 -5 0 -10 23 -10 51 l0 50 33 -3 c29
-3 32 -6 32 -38z m102 8 l33 -32 0 32 c0 18 5 32 10 32 6 0 10 -22 10 -50 0
-27 -3 -50 -7 -50 -4 0 -22 14 -40 32 l-33 32 0 -32 c0 -18 -4 -32 -10 -32 -5
0 -10 23 -10 50 0 28 3 50 7 50 4 0 22 -14 40 -32z m253 -18 c0 -27 -4 -50
-10 -50 -5 0 -10 23 -10 50 0 28 5 50 10 50 6 0 10 -22 10 -50z m247 18 l33
-32 0 32 c0 18 5 32 10 32 6 0 10 -22 10 -50 0 -27 -3 -50 -7 -50 -4 0 -22 14
-40 32 l-33 32 0 -32 c0 -18 -4 -32 -10 -32 -5 0 -10 23 -10 50 0 28 3 50 7
50 4 0 22 -14 40 -32z m191 20 c7 -7 12 -24 12 -38 0 -33 -17 -50 -50 -50 -33
0 -50 17 -50 50 0 14 5 31 12 38 15 15 61 15 76 0z m81 -20 l13 -33 14 33 c8
17 18 32 23 32 8 0 -22 -84 -35 -98 -3 -5 -29 46 -38 76 -11 34 8 26 23 -10z
m152 -14 c19 -45 17 -77 -2 -41 -12 21 -38 22 -45 2 -4 -8 -10 -15 -15 -15 -4
0 1 23 13 50 11 28 22 50 25 50 2 0 13 -21 24 -46z m112 39 c-8 -3 -13 -23
-13 -49 0 -24 -4 -44 -10 -44 -5 0 -10 20 -10 44 0 34 -4 46 -17 49 -10 3 0 5
22 5 22 0 34 -2 28 -5z m105 0 c-32 -5 -38 -33 -8 -33 11 0 20 -4 20 -10 0 -5
-9 -10 -20 -10 -30 0 -24 -28 8 -33 22 -3 20 -4 -10 -6 l-38 -1 0 50 0 50 38
-1 c30 -2 32 -3 10 -6z m332 -25 c0 18 5 32 10 32 6 0 10 -23 10 -51 l0 -51
-37 33 -38 33 -6 -35 c-5 -29 -7 -26 -8 20 l-1 55 35 -34 35 -34 0 32z m150
13 c23 -43 -1 -81 -51 -81 -28 0 -29 1 -29 50 l0 50 35 0 c24 0 37 -6 45 -19z
m180 10 c0 -5 -9 -7 -20 -4 -28 7 -25 -7 7 -33 36 -29 26 -54 -22 -54 -23 0
-34 4 -30 11 4 6 13 8 19 6 16 -7 45 13 30 19 -30 12 -47 32 -41 48 7 17 57
23 57 7z m96 -31 c17 0 24 5 24 20 0 11 5 20 10 20 6 0 10 -22 10 -50 0 -27
-4 -50 -10 -50 -5 0 -10 9 -10 20 0 30 -47 28 -53 -2 -2 -13 -4 2 -4 32 0 30
2 45 4 33 3 -16 11 -23 29 -23z m177 -60 c-3 -3 -10 3 -17 13 -16 21 -24 21
-49 0 -19 -17 -19 -17 -12 7 4 14 14 38 23 55 l15 30 22 -50 c12 -28 20 -52
18 -55z m112 60 c0 -19 4 -41 8 -47 5 -8 3 -13 -6 -13 -8 0 -17 7 -21 15 -3 8
-10 15 -16 15 -5 0 -10 -7 -10 -15 0 -8 -4 -15 -10 -15 -5 0 -10 23 -10 51 l0
50 33 -3 c29 -3 32 -6 32 -38z m108 33 c-40 -5 -46 -33 -8 -33 14 0 25 -4 25
-10 0 -5 -12 -10 -26 -10 -35 0 -26 -23 12 -31 25 -6 24 -7 -13 -8 l-43 -1 0
50 0 50 43 -2 c36 -1 38 -2 10 -5z m-2183 -98 c0 -8 -4 -15 -10 -15 -5 0 -7 7
-4 15 4 8 8 15 10 15 2 0 4 -7 4 -15z"/>
<path d="M821 2234 c-17 -21 -21 -41 -21 -99 0 -86 22 -125 71 -125 53 0 69
29 69 125 0 72 -3 88 -20 105 -29 29 -74 26 -99 -6z"/>
<path d="M2369 2120 l-27 -50 29 0 c28 0 29 2 29 50 0 28 -1 50 -2 50 -2 0
-15 -23 -29 -50z"/>
<path d="M2630 2205 l0 -55 45 0 c32 0 51 6 65 20 44 44 12 90 -63 90 l-47 0
0 -55z"/>
<path d="M2990 2135 l0 -125 40 0 c64 0 80 26 80 127 0 100 -15 123 -80 123
l-40 0 0 -125z"/>
<path d="M802 1555 c-18 -36 -32 -70 -32 -75 0 -6 16 -10 35 -10 l35 0 0 75
c0 41 -1 75 -3 75 -1 0 -17 -29 -35 -65z"/>
<path d="M2552 1668 c3 -47 6 -53 27 -56 38 -6 70 7 87 33 15 23 15 27 0 50
-14 21 -24 25 -67 25 l-50 0 3 -52z"/>
<path d="M2550 1455 l0 -55 63 0 c69 0 97 17 97 57 0 36 -31 53 -98 53 l-62 0
0 -55z"/>
<path d="M610 1130 c0 -5 5 -10 10 -10 6 0 10 5 10 10 0 6 -4 10 -10 10 -5 0
-10 -4 -10 -10z"/>
<path d="M730 1150 c0 -13 5 -20 13 -17 6 2 12 10 12 17 0 7 -6 15 -12 18 -8
2 -13 -5 -13 -18z"/>
<path d="M1506 1154 c-20 -19 -20 -29 0 -48 12 -12 20 -13 35 -6 21 12 25 40
7 58 -16 16 -23 15 -42 -4z"/>
<path d="M1770 1130 c0 -5 5 -10 11 -10 5 0 7 5 4 10 -3 6 -8 10 -11 10 -2 0
-4 -4 -4 -10z"/>
<path d="M2440 1130 c0 -37 2 -39 23 -31 26 10 34 36 17 56 -23 28 -40 17 -40
-25z"/>
<path d="M2905 1130 c-3 -5 -1 -10 4 -10 6 0 11 5 11 10 0 6 -2 10 -4 10 -3 0
-8 -4 -11 -10z"/>
<path d="M3020 1150 c0 -13 5 -20 13 -17 6 2 12 10 12 17 0 7 -6 15 -12 18 -8
2 -13 -5 -13 -18z"/>
</g>
</svg>
